<svg xmlns="http://www.w3.org/2000/svg" width="18" height="18" viewBox="0 0 48 48">
  <path fill="#FFC107" d="M43.611,20.083H42V20H24v8h11.303c-1.649,4.657-6.08,8-11.303,8c-6.627,0-12-5.373-12-12  s5.373-12,12-12c3.059,0,5.842,1.154,7.961,3.039l5.657-5.657C32.676,6.053,28.513,4,24,4C12.955,4,4,12.955,4,24  s8.955,20,20,20s20-8.955,20-20C44,22.659,43.862,21.35,43.611,20.083z"/>
  <path fill="#FF3D00" d="M6.305,14.691l6.571,4.819C14.655,15.108,18.961,12,24,12c3.059,0,5.842,1.154,7.961,3.039l5.657-5.657  C32.676,6.053,28.513,4,24,4C16.318,4,9.656,8.337,6.305,14.691z"/>
  <path fill="#4CAF50" d="M24,44c4.438,0,8.495-1.518,11.682-4.073l-5.392-4.508C28.227,36.488,26.189,37,24,37  c-5.202,0-9.621-3.317-11.283-7.957l-6.56,5.054C9.483,39.556,16.227,44,24,44z"/>
  <path fill="#1976D2" d="M43.611,20.083H42V20H24v8h11.303c-0.792,2.237-2.231,4.166-4.105,5.583c0.001-0.001,0.002-0.001,0.003-0.002  l5.392,4.508C35.918,39.123,44,34,44,24C44,22.659,43.862,21.35,43.611,20.083z"/>
</svg>

